<svg width="80" height="80" viewBox="0 0 80 80" fill="none" xmlns="http://www.w3.org/2000/svg">
<g id="search_24px">
<path id="icon/action/search_24px" fill-rule="evenodd" clip-rule="evenodd" d="M49.8831 47.5167H52.5164L69.1497 64.1833L64.1831 69.15L47.5164 52.5167V49.8833L46.6164 48.95C42.8164 52.2167 37.8831 54.1833 32.5164 54.1833C20.5497 54.1833 10.8497 44.4833 10.8497 32.5167C10.8497 20.55 20.5497 10.85 32.5164 10.85C44.4831 10.85 54.1831 20.55 54.1831 32.5167C54.1831 37.8833 52.2164 42.8167 48.9497 46.6167L49.8831 47.5167ZM17.5164 32.5167C17.5164 40.8167 24.2164 47.5167 32.5164 47.5167C40.8164 47.5167 47.5164 40.8167 47.5164 32.5167C47.5164 24.2167 40.8164 17.5167 32.5164 17.5167C24.2164 17.5167 17.5164 24.2167 17.5164 32.5167Z" fill="#333333"/>
</g>
</svg>
